<svg width="25" height="24" viewBox="0 0 25 24" fill="none" xmlns="http://www.w3.org/2000/svg">
<path id="Accounts" d="M19.1074 0C19.2201 3.41948e-05 19.3315 0.0212312 19.4355 0.0615234C19.5397 0.101848 19.6343 0.160872 19.7139 0.235352L20.8213 1.27051L21.9287 0.235352C22.0247 0.145692 22.1423 0.0780469 22.2715 0.0390625C22.4008 8.52558e-05 22.5387 -0.00957155 22.6729 0.0107422C22.8068 0.0310877 22.9336 0.0811742 23.043 0.15625C23.1524 0.231387 23.241 0.329922 23.3018 0.443359L24.1592 2.04297C24.2189 2.15416 24.25 2.277 24.25 2.40137V21.5986C24.25 21.723 24.2189 21.8458 24.1592 21.957L23.3018 23.5566C23.241 23.6698 23.1523 23.7678 23.043 23.8428C22.9337 23.9177 22.8067 23.968 22.6729 23.9883C22.5392 24.0085 22.4023 23.9986 22.2734 23.96C22.1443 23.9212 22.0267 23.854 21.9307 23.7646L20.8213 22.7295L19.7139 23.7646C19.6343 23.8391 19.5397 23.8982 19.4355 23.9385C19.3315 23.9788 19.2201 24 19.1074 24C18.9947 24 18.8825 23.9788 18.7783 23.9385C18.6744 23.8982 18.5795 23.839 18.5 23.7646L17.3926 22.7295L16.2852 23.7646C16.2055 23.8391 16.111 23.8982 16.0068 23.9385C15.9028 23.9788 15.7914 24 15.6787 24C15.566 24 15.4537 23.9788 15.3496 23.9385C15.2457 23.8982 15.1508 23.839 15.0713 23.7646L13.9639 22.7295L12.8564 23.7646C12.7768 23.8391 12.6822 23.8982 12.5781 23.9385C12.474 23.9788 12.3627 24 12.25 24C12.1373 24 12.026 23.9788 11.9219 23.9385C11.8178 23.8982 11.7232 23.8391 11.6436 23.7646L10.5361 22.7295L9.42871 23.7646C9.34923 23.839 9.25431 23.8982 9.15039 23.9385C9.04626 23.9788 8.93403 24 8.82129 24C8.70862 24 8.59724 23.9788 8.49316 23.9385C8.38903 23.8982 8.29447 23.8391 8.21484 23.7646L7.10742 22.7295L6 23.7646C5.92049 23.839 5.82565 23.8982 5.72168 23.9385C5.61755 23.9788 5.50532 24 5.39258 24C5.27993 24 5.1685 23.9788 5.06445 23.9385C4.96034 23.8982 4.86574 23.8391 4.78613 23.7646L3.67871 22.7295L2.57129 23.7646C2.47529 23.8543 2.35775 23.922 2.22852 23.9609C2.09922 23.9999 1.96127 24.0096 1.82715 23.9893C1.69315 23.9689 1.56639 23.9188 1.45703 23.8438C1.34758 23.7686 1.25895 23.6701 1.19824 23.5566L0.34082 21.957C0.281137 21.8458 0.250009 21.723 0.25 21.5986V2.40137C0.250009 2.277 0.281137 2.15416 0.34082 2.04297L1.19824 0.443359C1.25895 0.329999 1.34765 0.231349 1.45703 0.15625C1.56638 0.0812131 1.69318 0.0310742 1.82715 0.0107422C1.96129 -0.0096428 2.09917 0.000123815 2.22852 0.0390625C2.35775 0.0780206 2.47527 0.145717 2.57129 0.235352L3.67871 1.27051L4.78613 0.235352C4.86574 0.160872 4.96034 0.101848 5.06445 0.0615234C5.1685 0.0212312 5.27993 3.4224e-05 5.39258 0C5.50532 0 5.61755 0.0211979 5.72168 0.0615234C5.82565 0.101845 5.92049 0.160958 6 0.235352L7.10742 1.27051L8.21484 0.235352C8.29447 0.160859 8.38903 0.101849 8.49316 0.0615234C8.59724 0.0212322 8.70862 1.71227e-05 8.82129 0C8.93403 0 9.04626 0.0211979 9.15039 0.0615234C9.25431 0.101844 9.34923 0.160987 9.42871 0.235352L10.5361 1.27051L11.6436 0.235352C11.7232 0.160879 11.8178 0.101841 11.9219 0.0615234C12.026 0.0212464 12.1373 1.46228e-08 12.25 0C12.3627 0 12.474 0.0212463 12.5781 0.0615234C12.6822 0.101841 12.7768 0.160879 12.8564 0.235352L13.9639 1.27051L15.0713 0.235352C15.1508 0.160988 15.2457 0.101844 15.3496 0.0615234C15.4537 0.0211979 15.566 0 15.6787 0C15.7914 1.70935e-05 15.9028 0.021232 16.0068 0.0615234C16.111 0.101849 16.2055 0.160859 16.2852 0.235352L17.3926 1.27051L18.5 0.235352C18.5795 0.160959 18.6744 0.101845 18.7783 0.0615234C18.8825 0.0211979 18.9947 0 19.1074 0ZM5.39258 22.0674L5.46484 22H5.32031L5.39258 22.0674ZM8.82129 22.0674L8.89355 22H8.74902L8.82129 22.0674ZM12.25 22.0674L12.3223 22H12.1777L12.25 22.0674ZM15.6787 22.0674L15.751 22H15.6064L15.6787 22.0674ZM19.1074 22.0674L19.1797 22H19.0352L19.1074 22.0674ZM4.15039 17C3.9117 17 3.68245 17.1054 3.51367 17.293C3.34489 17.4805 3.25 17.7348 3.25 18C3.25 18.2652 3.34489 18.5195 3.51367 18.707C3.68245 18.8946 3.9117 19 4.15039 19H14.9502C15.1887 18.9999 15.4172 18.8944 15.5859 18.707C15.7547 18.5195 15.8496 18.2652 15.8496 18C15.8496 17.7348 15.7547 17.4805 15.5859 17.293C15.4172 17.1056 15.1887 17.0001 14.9502 17H4.15039ZM18.5498 17C18.3113 17.0001 18.0828 17.1056 17.9141 17.293C17.7453 17.4805 17.6504 17.7348 17.6504 18C17.6504 18.2652 17.7453 18.5195 17.9141 18.707C18.0828 18.8944 18.3113 18.9999 18.5498 19H20.3496C20.5883 19 20.8175 18.8946 20.9863 18.707C21.1551 18.5195 21.25 18.2652 21.25 18C21.25 17.7348 21.1551 17.4805 20.9863 17.293C20.8175 17.1054 20.5883 17 20.3496 17H18.5498ZM4.15039 13C3.9117 13 3.68245 13.1054 3.51367 13.293C3.34489 13.4805 3.25 13.7348 3.25 14C3.25 14.2652 3.34489 14.5195 3.51367 14.707C3.68245 14.8946 3.9117 15 4.15039 15H14.9502C15.1887 14.9999 15.4172 14.8944 15.5859 14.707C15.7547 14.5195 15.8496 14.2652 15.8496 14C15.8496 13.7348 15.7547 13.4805 15.5859 13.293C15.4172 13.1056 15.1887 13.0001 14.9502 13H4.15039ZM18.5498 13C18.3113 13.0001 18.0828 13.1056 17.9141 13.293C17.7453 13.4805 17.6504 13.7348 17.6504 14C17.6504 14.2652 17.7453 14.5195 17.9141 14.707C18.0828 14.8944 18.3113 14.9999 18.5498 15H20.3496C20.5883 15 20.8175 14.8946 20.9863 14.707C21.1551 14.5195 21.25 14.2652 21.25 14C21.25 13.7348 21.1551 13.4805 20.9863 13.293C20.8175 13.1054 20.5883 13 20.3496 13H18.5498ZM4.15039 9C3.9117 9 3.68245 9.10543 3.51367 9.29297C3.34489 9.4805 3.25 9.73479 3.25 10C3.25 10.2652 3.34489 10.5195 3.51367 10.707C3.68245 10.8946 3.9117 11 4.15039 11H14.9502C15.1887 10.9999 15.4172 10.8944 15.5859 10.707C15.7547 10.5195 15.8496 10.2652 15.8496 10C15.8496 9.73478 15.7547 9.4805 15.5859 9.29297C15.4172 9.1056 15.1887 9.00006 14.9502 9H4.15039ZM18.5498 9C18.3113 9.00006 18.0828 9.1056 17.9141 9.29297C17.7453 9.4805 17.6504 9.73478 17.6504 10C17.6504 10.2652 17.7453 10.5195 17.9141 10.707C18.0828 10.8944 18.3113 10.9999 18.5498 11H20.3496C20.5883 11 20.8175 10.8946 20.9863 10.707C21.1551 10.5195 21.25 10.2652 21.25 10C21.25 9.73479 21.1551 9.4805 20.9863 9.29297C20.8175 9.10543 20.5883 9 20.3496 9H18.5498ZM4.15039 5C3.9117 5 3.68245 5.10543 3.51367 5.29297C3.34489 5.4805 3.25 5.73479 3.25 6C3.25 6.26521 3.34489 6.5195 3.51367 6.70703C3.68245 6.89457 3.9117 7 4.15039 7H14.9502C15.1887 6.99994 15.4172 6.8944 15.5859 6.70703C15.7547 6.5195 15.8496 6.26522 15.8496 6C15.8496 5.73478 15.7547 5.4805 15.5859 5.29297C15.4172 5.1056 15.1887 5.00006 14.9502 5H4.15039ZM18.5498 5C18.3113 5.00006 18.0828 5.1056 17.9141 5.29297C17.7453 5.4805 17.6504 5.73478 17.6504 6C17.6504 6.26522 17.7453 6.5195 17.9141 6.70703C18.0828 6.8944 18.3113 6.99994 18.5498 7H20.3496C20.5883 7 20.8175 6.89457 20.9863 6.70703C21.1551 6.5195 21.25 6.26521 21.25 6C21.25 5.73479 21.1551 5.4805 20.9863 5.29297C20.8175 5.10543 20.5883 5 20.3496 5H18.5498ZM5.32031 2H5.46484L5.39258 1.93262L5.32031 2ZM8.74902 2H8.89355L8.82129 1.93262L8.74902 2ZM12.1777 2H12.3223L12.25 1.93262L12.1777 2ZM15.6064 2H15.751L15.6787 1.93262L15.6064 2ZM19.0352 2H19.1797L19.1074 1.93262L19.0352 2Z" fill="currentColor"/>
</svg>
