<svg width="25" height="24" viewBox="0 0 25 24" fill="none" xmlns="http://www.w3.org/2000/svg">
<path id="Cart" d="M0.75 1.125C0.75 0.501562 1.19965 0 1.75855 0H3.6706C4.59511 0 5.41456 0.6 5.79697 1.5H23.0684C24.1736 1.5 24.9805 2.67188 24.6905 3.8625L22.9676 11.0016C22.6104 12.4734 21.4127 13.5 20.047 13.5H7.92333L8.15026 14.8359C8.24271 15.3656 8.65873 15.75 9.142 15.75H21.2572C21.8161 15.75 22.2658 16.2516 22.2658 16.875C22.2658 17.4984 21.8161 18 21.2572 18H9.142C7.688 18 6.43992 16.8469 6.17097 15.2578L4.00258 2.55469C3.97317 2.37656 3.83449 2.25 3.6706 2.25H1.75855C1.19965 2.25 0.75 1.74844 0.75 1.125ZM6.12895 21.75C6.12895 21.4545 6.18112 21.1619 6.28249 20.889C6.38386 20.616 6.53244 20.3679 6.71974 20.159C6.90705 19.9501 7.12941 19.7843 7.37414 19.6713C7.61887 19.5582 7.88116 19.5 8.14605 19.5C8.41094 19.5 8.67324 19.5582 8.91796 19.6713C9.16269 19.7843 9.38506 19.9501 9.57236 20.159C9.75967 20.3679 9.90825 20.616 10.0096 20.889C10.111 21.1619 10.1632 21.4545 10.1632 21.75C10.1632 22.0455 10.111 22.3381 10.0096 22.611C9.90825 22.884 9.75967 23.1321 9.57236 23.341C9.38506 23.5499 9.16269 23.7157 8.91796 23.8287C8.67324 23.9418 8.41094 24 8.14605 24C7.88116 24 7.61887 23.9418 7.37414 23.8287C7.12941 23.7157 6.90705 23.5499 6.71974 23.341C6.53244 23.1321 6.38386 22.884 6.28249 22.611C6.18112 22.3381 6.12895 22.0455 6.12895 21.75ZM20.2487 19.5C20.7837 19.5 21.2967 19.7371 21.675 20.159C22.0533 20.581 22.2658 21.1533 22.2658 21.75C22.2658 22.3467 22.0533 22.919 21.675 23.341C21.2967 23.7629 20.7837 24 20.2487 24C19.7137 24 19.2007 23.7629 18.8224 23.341C18.4441 22.919 18.2316 22.3467 18.2316 21.75C18.2316 21.1533 18.4441 20.581 18.8224 20.159C19.2007 19.7371 19.7137 19.5 20.2487 19.5Z" fill="currentColor"/>
</svg>
