<svg width="24" height="24" viewBox="0 0 24 24" fill="none" xmlns="http://www.w3.org/2000/svg">
<g id="DashBoard">
<path fill-rule="evenodd" clip-rule="evenodd" d="M0 0.75C0 0.335786 0.335786 0 0.75 0H23.25C23.6642 0 24 0.335786 24 0.75V23.25C24 23.6642 23.6642 24 23.25 24H0.75C0.335786 24 0 23.6642 0 23.25V0.75ZM1.875 1.875V22.125H22.125V1.875H1.875Z" fill="black"/>
<path fill-rule="evenodd" clip-rule="evenodd" d="M1.875 22.125V1.875H22.125V22.125H1.875ZM12.5625 19.875H11.4375C11.2304 19.875 11.0625 19.7071 11.0625 19.5V4.5C11.0625 4.29289 11.2304 4.125 11.4375 4.125H12.5625C12.7696 4.125 12.9375 4.29289 12.9375 4.5V19.5C12.9375 19.7071 12.7696 19.875 12.5625 19.875ZM6.75 19.875H5.625C5.41789 19.875 5.25 19.7071 5.25 19.5V9.75C5.25 9.54289 5.41789 9.375 5.625 9.375H6.75C6.95711 9.375 7.125 9.54289 7.125 9.75V19.5C7.125 19.7071 6.95711 19.875 6.75 19.875ZM18.375 19.875H17.25C17.0429 19.875 16.875 19.7071 16.875 19.5V13.5C16.875 13.2929 17.0429 13.125 17.25 13.125H18.375C18.5821 13.125 18.75 13.2929 18.75 13.5V19.5C18.75 19.7071 18.5821 19.875 18.375 19.875Z" fill="currentColor"/>
</g>
</svg>
