<svg width="24" height="24" viewBox="0 0 24 24" fill="none" xmlns="http://www.w3.org/2000/svg">
<path d="M19 0C20.3256 0.00158785 21.5968 0.528489 22.5342 1.46582C23.4715 2.40316 23.9984 3.67441 24 5V19C23.9984 20.3256 23.4715 21.5968 22.5342 22.5342C21.5968 23.4715 20.3256 23.9984 19 24H5C3.67441 23.9984 2.40316 23.4715 1.46582 22.5342C0.528489 21.5968 0.00158785 20.3256 0 19V5C0.00158786 3.67441 0.528482 2.40316 1.46582 1.46582C2.40316 0.528482 3.67441 0.00158786 5 0H19ZM9 11.6562C8.60594 11.6562 8.21561 11.7339 7.85156 11.8848C7.48745 12.0357 7.15653 12.2573 6.87793 12.5361L2 17.4141V19C2 19.7956 2.3163 20.5585 2.87891 21.1211C3.44152 21.6837 4.20435 22 5 22H19C19.4455 21.9983 19.885 21.8959 20.2852 21.7002L11.1221 12.5361C10.8435 12.2573 10.5125 12.0357 10.1484 11.8848C9.78439 11.7339 9.39406 11.6562 9 11.6562ZM5 2C4.20435 2 3.44152 2.3163 2.87891 2.87891C2.3163 3.44152 2 4.20435 2 5V14.5859L5.46484 11.1221C5.92905 10.6578 6.48036 10.2895 7.08691 10.0381C7.69362 9.78673 8.34426 9.65723 9.00098 9.65723C9.6577 9.65723 10.3083 9.78673 10.915 10.0381C11.5216 10.2895 12.0729 10.6578 12.5371 11.1221L21.7002 20.2852C21.8959 19.885 21.9983 19.4455 22 19V5C22 4.20435 21.6837 3.44152 21.1211 2.87891C20.5585 2.3163 19.7956 2 19 2H5ZM14.6602 3.7666C15.2997 3.50171 16.0038 3.43237 16.6826 3.56738C17.3616 3.70243 17.9851 4.03592 18.4746 4.52539C18.9641 5.01488 19.2975 5.63845 19.4326 6.31738C19.5676 6.99626 19.4983 7.70035 19.2334 8.33984C18.9685 8.97919 18.5198 9.52566 17.9443 9.91016C17.3688 10.2947 16.6923 10.5 16 10.5C15.0718 10.5 14.1818 10.131 13.5254 9.47461C12.8691 8.81823 12.5 7.92825 12.5 7C12.5 6.30782 12.7053 5.6312 13.0898 5.05566C13.4744 4.48023 14.0208 4.03153 14.6602 3.7666ZM16 5.5C15.6022 5.5 15.2208 5.65814 14.9395 5.93945C14.6582 6.22075 14.5 6.60218 14.5 7C14.5 7.2966 14.5882 7.58638 14.7529 7.83301C14.9177 8.07961 15.1518 8.27219 15.4258 8.38574C15.6999 8.49927 16.002 8.52858 16.293 8.4707C16.5837 8.41279 16.8508 8.27022 17.0605 8.06055C17.2703 7.85082 17.4138 7.58385 17.4717 7.29297C17.5296 7.002 17.4993 6.69987 17.3857 6.42578C17.2722 6.15177 17.0797 5.91771 16.833 5.75293C16.5864 5.5882 16.2966 5.5 16 5.5Z" fill="currentColor"/>
</svg>
