<svg width="25" height="24" viewBox="0 0 25 24" fill="none" xmlns="http://www.w3.org/2000/svg">
<path id="Photos" d="M19.75 5C21.0756 5.00159 22.3468 5.52848 23.2842 6.46582C24.2215 7.40316 24.7484 8.67441 24.75 10V19C24.7484 20.3256 24.2215 21.5968 23.2842 22.5342C22.3468 23.4715 21.0756 23.9984 19.75 24H5.75C4.42441 23.9984 3.15316 23.4715 2.21582 22.5342C1.27849 21.5968 0.751593 20.3256 0.75 19V10C0.751588 8.67441 1.27848 7.40316 2.21582 6.46582C3.15316 5.52848 4.42441 5.00159 5.75 5H19.75ZM15.0459 8.45703C13.9496 8.00293 12.743 7.88373 11.5791 8.11523C10.4153 8.34679 9.34685 8.91878 8.50781 9.75781C7.66878 10.5968 7.09679 11.6653 6.86523 12.8291C6.63373 13.993 6.75292 15.1996 7.20703 16.2959C7.66116 17.3923 8.4303 18.33 9.41699 18.9893C10.4036 19.6483 11.5635 20 12.75 20C14.3408 19.9984 15.8663 19.3661 16.9912 18.2412C18.1161 17.1163 18.7484 15.5908 18.75 14C18.75 12.8135 18.3983 11.6536 17.7393 10.667C17.08 9.6803 16.1423 8.91116 15.0459 8.45703ZM12.75 10C14.9591 10 16.75 11.7909 16.75 14C16.75 16.2091 14.9591 18 12.75 18C10.5409 18 8.75 16.2091 8.75 14C8.75 11.7909 10.5409 10 12.75 10ZM14.6816 0C15.1403 0.00166304 15.5932 0.107208 16.0049 0.30957C16.4164 0.51191 16.7762 0.805867 17.0576 1.16797L18.4707 3H7.0293L8.44141 1.16797C8.72288 0.805775 9.08346 0.511933 9.49512 0.30957C9.9066 0.107325 10.3589 0.00172686 10.8174 0H14.6816Z" fill="currentColor"/>
</svg>
