<svg width="25" height="24" viewBox="0 0 25 24" fill="none" xmlns="http://www.w3.org/2000/svg">
<path id="Posts" d="M12.5 0C13.4467 0.000137189 14.2139 0.768139 14.2139 1.71484V10.2861H22.7861C23.7328 10.2862 24.4998 11.0534 24.5 12C24.5 12.9468 23.7329 13.7148 22.7861 13.7148H14.2139V22.2861C14.2138 23.2328 13.4466 23.9999 12.5 24C11.5533 24 10.7852 23.2329 10.7852 22.2861V13.7148H2.21387C1.26729 13.7146 0.5 12.9466 0.5 12C0.500172 11.0535 1.26739 10.2864 2.21387 10.2861H10.7852V1.71484C10.7852 0.768055 11.5532 0 12.5 0Z" fill="white"/>
</svg>
