<svg width="22" height="24" viewBox="0 0 22 24" fill="none" xmlns="http://www.w3.org/2000/svg">
<path id="Profile" d="M16.9999 14C18.3762 14 19.683 14.5951 20.4706 15.5586C21.2996 16.5729 21.5289 17.9963 20.6357 19.3164C18.719 22.1495 15.0394 24 10.9999 24C6.96051 24 3.28092 22.1494 1.36419 19.3164C0.471188 17.9963 0.70042 16.5728 1.52923 15.5586C2.31687 14.595 3.62375 14 4.99994 14H16.9999ZM10.9999 0C14.3137 0 16.9999 2.68629 16.9999 6C16.9999 9.31371 14.3137 12 10.9999 12C7.68629 11.9999 4.99994 9.31366 4.99994 6C4.99994 2.68634 7.68629 7.35406e-05 10.9999 0Z" fill="currentColor"/>
</svg>
